<mxfile host="app.diagrams.net" modified="2020-10-27T12:01:04.924Z" agent="5.0 (Windows)" etag="Mnok1cpjBSIppd90UlIp" version="13.8.3" type="github">
  <diagram id="C5RBs43oDa-KdzZeNtuy" name="Page-1">
    <mxGraphModel dx="1254" dy="742" grid="1" gridSize="10" guides="1" tooltips="1" connect="1" arrows="1" fold="1" page="1" pageScale="1" pageWidth="827" pageHeight="1169" math="0" shadow="0">
      <root>
        <mxCell id="WIyWlLk6GJQsqaUBKTNV-0" />
        <mxCell id="WIyWlLk6GJQsqaUBKTNV-1" parent="WIyWlLk6GJQsqaUBKTNV-0" />
        <mxCell id="roj2HlaW3x6q2TSYqqBv-6" value="" style="edgeStyle=orthogonalEdgeStyle;rounded=0;orthogonalLoop=1;jettySize=auto;html=1;endArrow=block;endFill=0;" edge="1" parent="WIyWlLk6GJQsqaUBKTNV-1" source="roj2HlaW3x6q2TSYqqBv-0" target="roj2HlaW3x6q2TSYqqBv-5">
          <mxGeometry relative="1" as="geometry" />
        </mxCell>
        <mxCell id="roj2HlaW3x6q2TSYqqBv-0" value="&lt;div&gt;普通批量预定&lt;/div&gt;" style="rounded=1;whiteSpace=wrap;html=1;fillColor=#d5e8d4;strokeColor=#82b366;" vertex="1" parent="WIyWlLk6GJQsqaUBKTNV-1">
          <mxGeometry x="47" y="40" width="120" height="60" as="geometry" />
        </mxCell>
        <mxCell id="roj2HlaW3x6q2TSYqqBv-9" value="&lt;div&gt;yes&lt;/div&gt;" style="edgeStyle=orthogonalEdgeStyle;rounded=0;orthogonalLoop=1;jettySize=auto;html=1;endArrow=block;endFill=0;" edge="1" parent="WIyWlLk6GJQsqaUBKTNV-1" source="roj2HlaW3x6q2TSYqqBv-5" target="roj2HlaW3x6q2TSYqqBv-8">
          <mxGeometry relative="1" as="geometry" />
        </mxCell>
        <mxCell id="roj2HlaW3x6q2TSYqqBv-11" value="no" style="edgeStyle=orthogonalEdgeStyle;rounded=0;orthogonalLoop=1;jettySize=auto;html=1;endArrow=block;endFill=0;" edge="1" parent="WIyWlLk6GJQsqaUBKTNV-1" source="roj2HlaW3x6q2TSYqqBv-5" target="roj2HlaW3x6q2TSYqqBv-10">
          <mxGeometry relative="1" as="geometry" />
        </mxCell>
        <mxCell id="roj2HlaW3x6q2TSYqqBv-5" value="订单&lt;div&gt;是否指定仓库&lt;/div&gt;" style="rhombus;whiteSpace=wrap;html=1;rounded=1;" vertex="1" parent="WIyWlLk6GJQsqaUBKTNV-1">
          <mxGeometry x="67" y="140" width="80" height="80" as="geometry" />
        </mxCell>
        <mxCell id="roj2HlaW3x6q2TSYqqBv-8" value="预定指定仓库" style="whiteSpace=wrap;html=1;rounded=1;fillColor=#ffe6cc;strokeColor=#d79b00;" vertex="1" parent="WIyWlLk6GJQsqaUBKTNV-1">
          <mxGeometry x="207" y="165" width="90" height="30" as="geometry" />
        </mxCell>
        <mxCell id="roj2HlaW3x6q2TSYqqBv-33" value="yes" style="edgeStyle=orthogonalEdgeStyle;rounded=0;orthogonalLoop=1;jettySize=auto;html=1;endArrow=block;endFill=0;" edge="1" parent="WIyWlLk6GJQsqaUBKTNV-1" source="roj2HlaW3x6q2TSYqqBv-10">
          <mxGeometry relative="1" as="geometry">
            <mxPoint x="207" y="340" as="targetPoint" />
          </mxGeometry>
        </mxCell>
        <mxCell id="roj2HlaW3x6q2TSYqqBv-51" value="no" style="edgeStyle=orthogonalEdgeStyle;rounded=0;orthogonalLoop=1;jettySize=auto;html=1;endArrow=block;endFill=0;" edge="1" parent="WIyWlLk6GJQsqaUBKTNV-1" source="roj2HlaW3x6q2TSYqqBv-10" target="roj2HlaW3x6q2TSYqqBv-18">
          <mxGeometry relative="1" as="geometry" />
        </mxCell>
        <mxCell id="roj2HlaW3x6q2TSYqqBv-10" value="是否含B站商品" style="rhombus;whiteSpace=wrap;html=1;rounded=1;" vertex="1" parent="WIyWlLk6GJQsqaUBKTNV-1">
          <mxGeometry x="67" y="300" width="80" height="80" as="geometry" />
        </mxCell>
        <mxCell id="roj2HlaW3x6q2TSYqqBv-67" value="yes" style="edgeStyle=orthogonalEdgeStyle;rounded=0;orthogonalLoop=1;jettySize=auto;html=1;endArrow=block;endFill=0;" edge="1" parent="WIyWlLk6GJQsqaUBKTNV-1" source="roj2HlaW3x6q2TSYqqBv-18">
          <mxGeometry relative="1" as="geometry">
            <mxPoint x="307" y="340" as="targetPoint" />
          </mxGeometry>
        </mxCell>
        <mxCell id="roj2HlaW3x6q2TSYqqBv-18" value="订单是纯&#xa;SF427" style="rhombus;whiteSpace=wrap;rounded=1;" vertex="1" parent="WIyWlLk6GJQsqaUBKTNV-1">
          <mxGeometry x="67" y="420" width="80" height="80" as="geometry" />
        </mxCell>
        <mxCell id="roj2HlaW3x6q2TSYqqBv-53" value="yes" style="edgeStyle=orthogonalEdgeStyle;rounded=0;orthogonalLoop=1;jettySize=auto;html=1;endArrow=block;endFill=0;" edge="1" parent="WIyWlLk6GJQsqaUBKTNV-1" source="roj2HlaW3x6q2TSYqqBv-23" target="roj2HlaW3x6q2TSYqqBv-52">
          <mxGeometry relative="1" as="geometry" />
        </mxCell>
        <mxCell id="roj2HlaW3x6q2TSYqqBv-23" value="是否纯B站商品" style="rhombus;whiteSpace=wrap;html=1;rounded=1;" vertex="1" parent="WIyWlLk6GJQsqaUBKTNV-1">
          <mxGeometry x="207" y="300" width="80" height="80" as="geometry" />
        </mxCell>
        <mxCell id="roj2HlaW3x6q2TSYqqBv-61" value="&lt;div&gt;no&lt;/div&gt;" style="edgeStyle=orthogonalEdgeStyle;rounded=0;orthogonalLoop=1;jettySize=auto;html=1;endArrow=block;endFill=0;" edge="1" parent="WIyWlLk6GJQsqaUBKTNV-1" source="roj2HlaW3x6q2TSYqqBv-36" target="roj2HlaW3x6q2TSYqqBv-44">
          <mxGeometry relative="1" as="geometry" />
        </mxCell>
        <mxCell id="roj2HlaW3x6q2TSYqqBv-63" value="yes" style="edgeStyle=orthogonalEdgeStyle;rounded=0;orthogonalLoop=1;jettySize=auto;html=1;endArrow=block;endFill=0;" edge="1" parent="WIyWlLk6GJQsqaUBKTNV-1" source="roj2HlaW3x6q2TSYqqBv-36" target="roj2HlaW3x6q2TSYqqBv-38">
          <mxGeometry relative="1" as="geometry" />
        </mxCell>
        <mxCell id="roj2HlaW3x6q2TSYqqBv-36" value="美国仓库存是否足够" style="rhombus;whiteSpace=wrap;html=1;rounded=1;" vertex="1" parent="WIyWlLk6GJQsqaUBKTNV-1">
          <mxGeometry x="591" y="195" width="80" height="80" as="geometry" />
        </mxCell>
        <mxCell id="roj2HlaW3x6q2TSYqqBv-38" value="预定美国仓" style="whiteSpace=wrap;html=1;rounded=1;fillColor=#ffe6cc;strokeColor=#d79b00;" vertex="1" parent="WIyWlLk6GJQsqaUBKTNV-1">
          <mxGeometry x="717" y="220" width="80" height="30" as="geometry" />
        </mxCell>
        <mxCell id="roj2HlaW3x6q2TSYqqBv-62" value="no" style="edgeStyle=orthogonalEdgeStyle;rounded=0;orthogonalLoop=1;jettySize=auto;html=1;endArrow=block;endFill=0;" edge="1" parent="WIyWlLk6GJQsqaUBKTNV-1" source="roj2HlaW3x6q2TSYqqBv-40" target="roj2HlaW3x6q2TSYqqBv-44">
          <mxGeometry relative="1" as="geometry" />
        </mxCell>
        <mxCell id="roj2HlaW3x6q2TSYqqBv-64" value="yes" style="edgeStyle=orthogonalEdgeStyle;rounded=0;orthogonalLoop=1;jettySize=auto;html=1;endArrow=block;endFill=0;" edge="1" parent="WIyWlLk6GJQsqaUBKTNV-1" source="roj2HlaW3x6q2TSYqqBv-40" target="roj2HlaW3x6q2TSYqqBv-60">
          <mxGeometry relative="1" as="geometry" />
        </mxCell>
        <mxCell id="roj2HlaW3x6q2TSYqqBv-40" value="加拿大仓库存是否足够" style="rhombus;whiteSpace=wrap;html=1;rounded=1;" vertex="1" parent="WIyWlLk6GJQsqaUBKTNV-1">
          <mxGeometry x="591" y="405" width="80" height="80" as="geometry" />
        </mxCell>
        <mxCell id="roj2HlaW3x6q2TSYqqBv-44" value="预定中山仓" style="whiteSpace=wrap;html=1;rounded=1;fillColor=#ffe6cc;strokeColor=#d79b00;" vertex="1" parent="WIyWlLk6GJQsqaUBKTNV-1">
          <mxGeometry x="591" y="324" width="80" height="30" as="geometry" />
        </mxCell>
        <mxCell id="roj2HlaW3x6q2TSYqqBv-57" style="edgeStyle=orthogonalEdgeStyle;rounded=0;orthogonalLoop=1;jettySize=auto;html=1;entryX=0;entryY=0.5;entryDx=0;entryDy=0;endArrow=block;endFill=0;" edge="1" parent="WIyWlLk6GJQsqaUBKTNV-1" source="roj2HlaW3x6q2TSYqqBv-52" target="roj2HlaW3x6q2TSYqqBv-56">
          <mxGeometry relative="1" as="geometry" />
        </mxCell>
        <mxCell id="roj2HlaW3x6q2TSYqqBv-59" style="edgeStyle=orthogonalEdgeStyle;rounded=0;orthogonalLoop=1;jettySize=auto;html=1;entryX=0;entryY=0.5;entryDx=0;entryDy=0;endArrow=block;endFill=0;" edge="1" parent="WIyWlLk6GJQsqaUBKTNV-1" source="roj2HlaW3x6q2TSYqqBv-52" target="roj2HlaW3x6q2TSYqqBv-58">
          <mxGeometry relative="1" as="geometry" />
        </mxCell>
        <mxCell id="roj2HlaW3x6q2TSYqqBv-52" value="订单区域" style="rhombus;whiteSpace=wrap;html=1;rounded=1;" vertex="1" parent="WIyWlLk6GJQsqaUBKTNV-1">
          <mxGeometry x="337" y="300" width="80" height="80" as="geometry" />
        </mxCell>
        <mxCell id="roj2HlaW3x6q2TSYqqBv-66" value="" style="edgeStyle=orthogonalEdgeStyle;rounded=0;orthogonalLoop=1;jettySize=auto;html=1;endArrow=block;endFill=0;" edge="1" parent="WIyWlLk6GJQsqaUBKTNV-1" source="roj2HlaW3x6q2TSYqqBv-56" target="roj2HlaW3x6q2TSYqqBv-40">
          <mxGeometry relative="1" as="geometry" />
        </mxCell>
        <mxCell id="roj2HlaW3x6q2TSYqqBv-56" value="加拿大" style="rounded=1;whiteSpace=wrap;html=1;" vertex="1" parent="WIyWlLk6GJQsqaUBKTNV-1">
          <mxGeometry x="477" y="430" width="70" height="30" as="geometry" />
        </mxCell>
        <mxCell id="roj2HlaW3x6q2TSYqqBv-65" value="" style="edgeStyle=orthogonalEdgeStyle;rounded=0;orthogonalLoop=1;jettySize=auto;html=1;endArrow=block;endFill=0;" edge="1" parent="WIyWlLk6GJQsqaUBKTNV-1" source="roj2HlaW3x6q2TSYqqBv-58" target="roj2HlaW3x6q2TSYqqBv-36">
          <mxGeometry relative="1" as="geometry" />
        </mxCell>
        <mxCell id="roj2HlaW3x6q2TSYqqBv-58" value="美国" style="rounded=1;whiteSpace=wrap;html=1;" vertex="1" parent="WIyWlLk6GJQsqaUBKTNV-1">
          <mxGeometry x="477" y="220" width="70" height="30" as="geometry" />
        </mxCell>
        <mxCell id="roj2HlaW3x6q2TSYqqBv-60" value="预定美国仓" style="whiteSpace=wrap;html=1;rounded=1;fillColor=#ffe6cc;strokeColor=#d79b00;" vertex="1" parent="WIyWlLk6GJQsqaUBKTNV-1">
          <mxGeometry x="717" y="430" width="80" height="30" as="geometry" />
        </mxCell>
      </root>
    </mxGraphModel>
  </diagram>
</mxfile>
